<svg xmlns="http://www.w3.org/2000/svg" width="300" height="300" viewBox="0 0 300 300">
<rect width="300" height="300" fill="#1A0F14" rx="16"/>
<rect x="20" y="20" width="260" height="260" fill="white" rx="8"/>
<text x="150" y="150" text-anchor="middle" font-family="monospace" font-size="11" fill="#1A0F14" dominant-baseline="middle">MENÚ</text>
<text x="150" y="172" text-anchor="middle" font-family="monospace" font-size="8" fill="#1A0F14">Escaneá para ver</text>
<text x="150" y="184" text-anchor="middle" font-family="monospace" font-size="8" fill="#1A0F14">la carta completa</text>
<rect x="60" y="70" width="180" height="180" fill="none" stroke="#1A0F14" stroke-width="2" rx="4"/>
<g transform="translate(80,90)" fill="none" stroke="#1A0F14" stroke-width="3">
<rect x="0" y="0" width="40" height="40" rx="3"/>
<rect x="120" y="0" width="40" height="40" rx="3"/>
<rect x="0" y="120" width="40" height="40" rx="3"/>
<rect x="120" y="120" width="40" height="40" rx="3"/>
<rect x="60" y="60" width="40" height="40" rx="2"/>
<line x1="20" y1="50" x2="20" y2="110" stroke-width="2"/>
<line x1="50" y1="80" x2="130" y2="80" stroke-width="2"/>
<line x1="140" y1="50" x2="140" y2="110" stroke-width="2"/>
<line x1="20" y1="50" x2="140" y2="50" stroke-width="2"/>
<line x1="20" y1="110" x2="140" y2="110" stroke-width="2"/>
<circle cx="80" cy="80" r="10" stroke-width="2"/>
<circle cx="120" cy="120" r="8" stroke-width="2"/>
<circle cx="60" cy="60" r="6" stroke-width="2"/>
<circle cx="100" cy="100" r="5" stroke-width="2"/>
<circle cx="80" cy="120" r="4" stroke-width="2"/>
<circle cx="140" cy="140" r="3" stroke-width="2"/>
<circle cx="60" cy="140" r="3" stroke-width="2"/>
<circle cx="50" cy="70" r="4" stroke-width="2"/>
<circle cx="55" cy="95" r="3" stroke-width="2"/>
<circle cx="130" cy="100" r="5" stroke-width="2"/>
<circle cx="95" cy="55" r="3" stroke-width="1.5"/>
<circle cx="110" cy="70" r="2" stroke-width="1.5"/>
<circle cx="65" cy="65" r="2" stroke-width="1.5"/>
<circle cx="90" cy="130" r="3" stroke-width="1.5"/>
<circle cx="70" cy="110" r="2" stroke-width="1.5"/>
</g>
<rect x="20" y="20" width="260" height="260" fill="none" stroke="#F5C842" stroke-width="2" rx="8"/>
</svg>
